<svg xmlns="http://www.w3.org/2000/svg" width="80.07000000000001" height="35" viewBox="0 0 80.07000000000001 35"><rect class="svg__rect" x="0" y="0" width="80.07000000000001" height="35" fill="#3578E5"/><rect class="svg__rect" x="80.07000000000001" y="0" width="0" height="35" fill="#389AD5"/><path class="svg__text" d="M15.70 22L14.22 22L14.22 13.47L17.22 13.47Q18.69 13.47 19.50 14.13Q20.30 14.79 20.30 16.05L20.30 16.05Q20.30 16.90 19.89 17.48Q19.47 18.06 18.73 18.37L18.73 18.37L20.65 21.92L20.65 22L19.06 22L17.35 18.71L15.70 18.71L15.70 22ZM15.70 14.66L15.70 17.52L17.22 17.52Q17.97 17.52 18.39 17.15Q18.82 16.77 18.82 16.11L18.82 16.11Q18.82 15.43 18.43 15.05Q18.04 14.68 17.26 14.66L17.26 14.66L15.70 14.66ZM30.27 22L24.69 22L24.69 13.47L30.23 13.47L30.23 14.66L26.18 14.66L26.18 17.02L29.68 17.02L29.68 18.19L26.18 18.19L26.18 20.82L30.27 20.82L30.27 22ZM34.20 18.19L34.20 18.19L34.20 17.39Q34.20 16.19 34.63 15.27Q35.05 14.35 35.85 13.85Q36.65 13.35 37.70 13.35L37.70 13.35Q39.11 13.35 39.98 14.12Q40.84 14.89 40.98 16.29L40.98 16.29L39.50 16.29Q39.39 15.37 38.96 14.96Q38.53 14.55 37.70 14.55L37.70 14.55Q36.73 14.55 36.22 15.26Q35.70 15.96 35.69 17.33L35.69 17.33L35.69 18.09Q35.69 19.47 36.18 20.20Q36.68 20.92 37.63 20.92L37.63 20.92Q38.50 20.92 38.94 20.53Q39.38 20.14 39.50 19.22L39.50 19.22L40.98 19.22Q40.85 20.59 39.97 21.35Q39.09 22.12 37.63 22.12L37.63 22.12Q36.61 22.12 35.84 21.63Q35.06 21.15 34.64 20.26Q34.22 19.37 34.20 18.19ZM45.02 18.00L45.02 18.00L45.02 17.52Q45.02 16.28 45.46 15.32Q45.90 14.37 46.71 13.86Q47.52 13.35 48.56 13.35Q49.60 13.35 50.41 13.85Q51.21 14.35 51.65 15.29Q52.09 16.23 52.10 17.48L52.10 17.48L52.10 17.96Q52.10 19.21 51.66 20.16Q51.23 21.10 50.43 21.61Q49.62 22.12 48.57 22.12L48.57 22.12Q47.53 22.12 46.72 21.61Q45.91 21.10 45.47 20.17Q45.03 19.23 45.02 18.00ZM46.50 17.46L46.50 17.96Q46.50 19.36 47.05 20.13Q47.60 20.90 48.57 20.90L48.57 20.90Q49.56 20.90 50.09 20.15Q50.62 19.40 50.62 17.96L50.62 17.96L50.62 17.51Q50.62 16.09 50.08 15.34Q49.54 14.58 48.56 14.58L48.56 14.58Q47.60 14.58 47.06 15.33Q46.51 16.09 46.50 17.46L46.50 17.46ZM58.13 22L56.65 22L56.65 13.47L58.13 13.47L58.13 22ZM68.29 22L62.94 22L62.94 13.47L64.42 13.47L64.42 20.82L68.29 20.82L68.29 22Z" fill="#FFFFFF"/><path class="svg__text" d="" fill="#FFFFFF" x="93.07000000000001"/></svg>